<?xml version="1.0" encoding="UTF-8" standalone="no"?>
<svg
   xmlns:dc="http://purl.org/dc/elements/1.1/"
   xmlns:cc="http://creativecommons.org/ns#"
   xmlns:rdf="http://www.w3.org/1999/02/22-rdf-syntax-ns#"
   xmlns:svg="http://www.w3.org/2000/svg"
   xmlns="http://www.w3.org/2000/svg"
   xmlns:sodipodi="http://sodipodi.sourceforge.net/DTD/sodipodi-0.dtd"
   xmlns:inkscape="http://www.inkscape.org/namespaces/inkscape"
   sodipodi:docname="fire.svg"
   inkscape:version="1.0 (4035a4fb49, 2020-05-01)"
   id="svg862"
   version="1.1"
   viewBox="0 0 120 120"
   height="120"
   width="120">
  <defs
     id="defs856" />
  <sodipodi:namedview
     inkscape:window-maximized="0"
     inkscape:window-y="0"
     inkscape:window-x="110"
     inkscape:window-height="1062"
     inkscape:window-width="1274"
     units="px"
     showgrid="false"
     inkscape:document-rotation="0"
     inkscape:current-layer="layer1"
     inkscape:document-units="px"
     inkscape:cy="268.28427"
     inkscape:cx="311.29942"
     inkscape:zoom="0.98994949"
     inkscape:pageshadow="2"
     inkscape:pageopacity="0.0"
     borderopacity="1.0"
     bordercolor="#666666"
     pagecolor="#ffffff"
     id="base" />
  <metadata
     id="metadata859">
    <rdf:RDF>
      <cc:Work
         rdf:about="">
        <dc:format>image/svg+xml</dc:format>
        <dc:type
           rdf:resource="http://purl.org/dc/dcmitype/StillImage" />
        <dc:title></dc:title>
      </cc:Work>
    </rdf:RDF>
  </metadata>
  <g
     id="layer1"
     inkscape:groupmode="layer"
     inkscape:label="Layer 1">
    <g
       style="image-rendering:optimizeQuality;shape-rendering:geometricPrecision;text-rendering:geometricPrecision;fill:#cccccc"
       id="g10"
       transform="matrix(0.39242255,0,0,0.39242255,22.169217,1.3328288)">
      <path
         style="fill:#cccccc"
         class="fil0"
         d="M 28,132 C 1,87 47,69 46,46 68,90 25,95 28,132 Z"
         id="path6" />
      <path
         style="fill:#cccccc"
         class="fil0"
         d="m 17,148 c 3,20 11,38 33,49 -26,-45 -14,-91 19,-110 -3,6 -7,19 2,25 27,-29 34,-75 28,-112 34,33 53,79 31,120 -15,29 9,57 22,0 60,57 58,157 -34,179 8,-10 57,-56 8,-108 6,41 -27,41 -22,81 C 78,228 134,226 86,162 98,215 20,236 75,298 -7,281 -14,205 17,148 Z"
         id="path8" />
    </g>
  </g>
</svg>
