<?xml version="1.0" encoding="UTF-8" standalone="no"?>
<svg
   xmlns:dc="http://purl.org/dc/elements/1.1/"
   xmlns:cc="http://creativecommons.org/ns#"
   xmlns:rdf="http://www.w3.org/1999/02/22-rdf-syntax-ns#"
   xmlns:svg="http://www.w3.org/2000/svg"
   xmlns="http://www.w3.org/2000/svg"
   xmlns:sodipodi="http://sodipodi.sourceforge.net/DTD/sodipodi-0.dtd"
   xmlns:inkscape="http://www.inkscape.org/namespaces/inkscape"
   sodipodi:docname="hot.svg"
   inkscape:version="1.0 (4035a4fb49, 2020-05-01)"
   id="svg861"
   version="1.1"
   viewBox="0 0 120 120"
   height="453.5433"
   width="453.5433">
  <defs
     id="defs855" />
  <sodipodi:namedview
     inkscape:window-maximized="0"
     inkscape:window-y="0"
     inkscape:window-x="214"
     inkscape:window-height="1062"
     inkscape:window-width="1274"
     units="px"
     showgrid="false"
     inkscape:document-rotation="0"
     inkscape:current-layer="layer1"
     inkscape:document-units="px"
     inkscape:cy="560"
     inkscape:cx="400"
     inkscape:zoom="0.35"
     inkscape:pageshadow="2"
     inkscape:pageopacity="0.0"
     borderopacity="1.0"
     bordercolor="#666666"
     pagecolor="#ffffff"
     id="base" />
  <metadata
     id="metadata858">
    <rdf:RDF>
      <cc:Work
         rdf:about="">
        <dc:format>image/svg+xml</dc:format>
        <dc:type
           rdf:resource="http://purl.org/dc/dcmitype/StillImage" />
        <dc:title></dc:title>
      </cc:Work>
    </rdf:RDF>
  </metadata>
  <g
     id="layer1"
     inkscape:groupmode="layer"
     inkscape:label="Layer 1">
    <g
       style="fill:#cccccc"
       transform="matrix(4.0983418,0,0,4.0983418,-5.5734688,-5.5734688)"
       data-name="Layer 49"
       id="g18">
      <path
         style="fill:#cccccc"
         d="M 16,7 A 1,1 0 0 0 17,6 V 5 a 1,1 0 0 0 -2,0 v 1 a 1,1 0 0 0 1,1 z"
         id="path4" />
      <path
         style="fill:#cccccc"
         d="M 4,17 H 3 a 1,1 0 0 0 0,2 h 1 a 1,1 0 0 0 0,-2 z"
         id="path6" />
      <path
         style="fill:#cccccc"
         d="m 29,17 h -1 a 1,1 0 0 0 0,2 h 1 a 1,1 0 0 0 0,-2 z"
         id="path8" />
      <path
         style="fill:#cccccc"
         d="M 7.5146,10.9287 A 1,1 0 0 0 8.9287,9.5146 L 7.5146,8.1006 a 1,1 0 0 0 -1.414,1.414 z"
         id="path10" />
      <path
         style="fill:#cccccc"
         d="m 24.4854,8.1006 -1.4141,1.414 a 1,1 0 1 0 1.4141,1.4141 L 25.8995,9.5146 A 1,1 0 0 0 24.4854,8.1005 Z"
         id="path12" />
      <path
         style="fill:#cccccc"
         d="m 25,22 h -2.0848 a 8,8 0 1 0 -13.83,0 H 7 a 1,1 0 0 0 0,2 h 18 a 1,1 0 0 0 0,-2 z"
         id="path14" />
      <path
         style="fill:#cccccc"
         d="M 21,26 H 11 a 1,1 0 0 0 0,2 h 10 a 1,1 0 0 0 0,-2 z"
         id="path16" />
    </g>
  </g>
</svg>
