<?xml version="1.0" encoding="UTF-8" standalone="no"?>
<svg
   xmlns:dc="http://purl.org/dc/elements/1.1/"
   xmlns:cc="http://creativecommons.org/ns#"
   xmlns:rdf="http://www.w3.org/1999/02/22-rdf-syntax-ns#"
   xmlns:svg="http://www.w3.org/2000/svg"
   xmlns="http://www.w3.org/2000/svg"
   xmlns:sodipodi="http://sodipodi.sourceforge.net/DTD/sodipodi-0.dtd"
   xmlns:inkscape="http://www.inkscape.org/namespaces/inkscape"
   inkscape:version="1.0 (4035a4fb49, 2020-05-01)"
   sodipodi:docname="CHTO_logo_black.svg"
   version="1.1"
   id="svg2"
   xml:space="preserve"
   width="654.06665"
   height="236.10667"
   viewBox="0 0 654.06665 236.10667"><sodipodi:namedview
     inkscape:current-layer="svg2"
     inkscape:window-maximized="1"
     inkscape:window-y="-8"
     inkscape:window-x="76"
     inkscape:cy="118.05334"
     inkscape:cx="327.03333"
     inkscape:zoom="1.6359189"
     showgrid="false"
     id="namedview9"
     inkscape:window-height="1057"
     inkscape:window-width="1836"
     inkscape:pageshadow="2"
     inkscape:pageopacity="0"
     guidetolerance="10"
     gridtolerance="10"
     objecttolerance="10"
     borderopacity="1"
     bordercolor="#666666"
     pagecolor="#ffffff" /><metadata
     id="metadata8"><rdf:RDF><cc:Work
         rdf:about=""><dc:format>image/svg+xml</dc:format><dc:type
           rdf:resource="http://purl.org/dc/dcmitype/StillImage" /><dc:title></dc:title></cc:Work></rdf:RDF></metadata><defs
     id="defs6" /><g
     style="fill:#222222;fill-opacity:1"
     id="g10"
     transform="matrix(1.3333333,0,0,-1.3333333,0,236.10667)"><g
       style="fill:#222222;fill-opacity:1"
       id="g12"
       transform="scale(0.1)"><path
         d="m 2609.15,1492.53 -28.28,28.28 31.93,31.93 c -16.34,22.13 -26.12,49.37 -26.12,78.93 0,73.52 59.81,133.33 133.33,133.33 29.56,0 56.8,-9.78 78.93,-26.12 l 31.93,31.93 28.28,-28.28 -31.92,-31.92 c 16.33,-22.14 26.12,-49.38 26.12,-78.94 0,-73.52 -59.82,-133.33 -133.34,-133.33 -29.55,0 -56.8,9.78 -78.93,26.12 l -31.93,-31.93 m 189.39,189.39 -128.78,-128.78 c 14.52,-9.32 31.74,-14.8 50.25,-14.8 51.46,0 93.34,41.86 93.34,93.33 0,18.51 -5.48,35.72 -14.81,50.25 m -78.53,43.08 c -51.47,0 -93.33,-41.87 -93.33,-93.33 0,-18.51 5.48,-35.72 14.8,-50.24 l 128.78,128.77 c -14.53,9.32 -31.75,14.8 -50.25,14.8"
         style="fill:#222222;fill-opacity:1;fill-rule:nonzero;stroke:none"
         id="path14" /><path
         d="m 2046.68,0 h -40 v 687.18 c -166.72,5.25 -292.33,74.691 -393.92,131.07 -62.93,34.922 -117.28,65.086 -159.41,65.086 -52.17,0 -92.44,-33.836 -135.07,-69.664 -47.45,-39.863 -96.51,-81.094 -166.59,-81.094 -36.95,0 -71.65,9.172 -108.38,18.883 -42.38,11.211 -86.201,22.785 -140.509,22.785 -38.774,0 -82.531,-8.617 -133.207,-18.598 -35.77,-7.039 -74.356,-14.597 -116.246,-20.277 V 0 h -39.996 v 730.699 c -27.442,-2.66 -56.219,-4.277 -86.551,-4.277 -139.035,0 -310.012,34.18 -526.801,159.601 l 20.0313,34.622 C 229.117,799.676 393.902,766.73 527.926,766.738 c 29.953,0 58.394,1.641 85.426,4.325 v 90.609 h -52.5 c -97.879,0 -177.5,79.621 -177.5,177.498 v 72.5 h 40 v -72.5 c 0,-75.815 61.683,-137.502 137.5,-137.502 h 52.5 v 861.672 h 39.996 V 775.832 c 39.015,5.422 75.047,12.477 108.515,19.07 52.731,10.379 98.266,19.344 140.938,19.344 59.508,0 107.969,-12.808 150.729,-24.109 35.63,-9.426 66.41,-17.559 98.16,-17.559 55.5,0 96.96,34.832 140.85,71.719 46.25,38.855 94.07,79.039 160.81,79.039 52.49,0 111.03,-32.492 178.82,-70.113 97.47,-54.086 217.92,-120.692 374.51,-126.032 v 134.481 h -210 v 39.996 h 210 v 861.672 h 40 V 901.668 h 210 v -39.996 h -210 V 726.77 c 222.91,2.152 346.42,40.019 455.74,73.562 88.87,27.258 172.8,53.008 292.6,53.008 134.87,0 237.01,-29.063 335.78,-57.168 23.37,-6.649 46.94,-13.344 71.08,-19.688 -5.54,34.266 -8.53,69.375 -8.53,105.188 0,362.078 294.58,656.668 656.67,656.668 246.46,0 461.54,-136.56 573.83,-337.92 209.91,-68.07 469.42,-382.807 481.65,-397.756 l -30.96,-25.332 c -2.74,3.34 -233.36,283.128 -424.37,370.348 36.21,-81.38 56.51,-171.348 56.51,-266.008 C 4506.68,519.578 4212.1,225 3850.02,225 c -310.93,0 -571.89,217.289 -639.48,507.949 -31.06,7.813 -61.04,16.313 -90.69,24.75 -100.55,28.61 -195.53,55.641 -324.83,55.641 -113.8,0 -191.22,-23.75 -280.87,-51.25 -112.01,-34.36 -238.58,-73.168 -467.47,-75.32 V 0 M 3254.24,722.68 C 3324.55,459.469 3564.96,265 3850.02,265 c 340.03,0 616.66,276.641 616.66,616.672 0,102.926 -25.48,199.968 -70.26,285.368 -16.04,4.06 -31.58,6.3 -46.4,6.3 -213.22,0 -364.47,-133.22 -510.75,-262.051 C 3715.9,802.629 3599.37,700 3460.02,700 c -77.7,0 -144.43,9.391 -205.78,22.68 m 595.78,775.66 c -340.03,0 -616.67,-276.64 -616.67,-616.668 0,-39.574 3.89,-78.234 11.05,-115.75 64.26,-14.934 133.89,-25.922 215.62,-25.922 124.25,0 235.27,97.781 352.81,201.305 144.78,127.505 308.86,272.035 537.19,272.035 6.62,0 13.35,-0.38 20.16,-1.1 -109.57,171.81 -301.71,286.1 -520.16,286.1"
         style="fill:#222222;fill-opacity:1;fill-rule:nonzero;stroke:none"
         id="path16" /></g></g></svg>
